<?xml version="1.0" encoding="UTF-8"?>
<svg width="42px" height="47px" viewBox="0 0 42 47" version="1.1" xmlns="http://www.w3.org/2000/svg" xmlns:xlink="http://www.w3.org/1999/xlink">
    <!-- Generator: Sketch 52.5 (67469) - http://www.bohemiancoding.com/sketch -->
    <title>logo</title>
    <desc>Created with Sketch.</desc>
    <g id="Welcome" stroke="none" stroke-width="1" fill="none" fill-rule="evenodd">
        <g id="Desktop-HD" transform="translate(-250.000000, -85.000000)" fill="#E535AB">
            <g id="logo" transform="translate(250.000000, 85.000000)">
                <g>
                    <polygon id="Rectangle" transform="translate(12.642576, 18.682512) rotate(-149.999272) translate(-12.642576, -18.682512) " points="11.6538858 -0.522442549 13.6454185 -0.523176014 13.6312662 37.8874665 11.6397335 37.8882"></polygon>
                    <rect id="Rectangle" x="2" y="33" width="39" height="2"></rect>
                    <polygon id="Rectangle" transform="translate(12.647148, 37.958243) rotate(-149.999272) translate(-12.647148, -37.958243) " points="1.55011868 36.9669873 23.7449108 36.9588131 23.7441773 38.9494989 1.54938522 38.9576731"></polygon>
                    <polygon id="Rectangle" transform="translate(29.348076, 9.053363) rotate(-149.999272) translate(-29.348076, -9.053363) " points="18.2510467 8.06210718 40.4458388 8.05393302 40.4451053 10.0446188 18.2503132 10.052793"></polygon>
                    <polygon id="Rectangle" transform="translate(12.652476, 9.045785) rotate(-120.000728) translate(-12.652476, -9.045785) " points="11.6612202 -2.05124386 13.651906 -2.05197732 13.6437318 20.1428148 11.653046 20.1435482"></polygon>
                    <polygon id="Rectangle" transform="translate(29.361744, 18.682872) rotate(-120.000728) translate(-29.361744, -18.682872) " points="10.1567895 17.6941815 48.567432 17.6800292 48.5666985 19.6715619 10.156056 19.6857142"></polygon>
                    <rect id="Rectangle" x="3" y="13" width="2" height="23"></rect>
                    <rect id="Rectangle" x="37" y="13" width="2" height="23"></rect>
                    <polygon id="Rectangle" transform="translate(29.347992, 37.947177) rotate(-120.000728) translate(-29.347992, -37.947177) " points="28.4821206 28.2957616 30.2209727 28.2951209 30.2138634 47.5985915 28.4750113 47.5992321"></polygon>
                    <path d="M41.3913388,35.7493512 C40.1550471,37.9020254 37.3991467,38.6367705 35.2485142,37.3993051 C33.0978817,36.1618396 32.3638335,33.403323 33.6001252,31.2506488 C34.836417,29.0979746 37.5923173,28.3632295 39.7429498,29.6006949 C41.9064604,30.8510506 42.6405086,33.596677 41.3913388,35.7493512" id="Path"></path>
                    <path d="M8.39930505,15.7493512 C7.16183965,17.9020254 4.40332302,18.6367705 2.25064882,17.3993051 C0.0979746285,16.1618396 -0.636770456,13.403323 0.600694949,11.2506488 C1.83816035,9.09797463 4.59667698,8.36322954 6.74935118,9.60069495 C8.90202537,10.8510506 9.63677046,13.596677 8.39930505,15.7493512" id="Path"></path>
                    <path d="M0.600694949,35.7493512 C-0.636770456,33.596677 0.0979746285,30.8510506 2.25064882,29.6006949 C4.40332302,28.3632295 7.14894938,29.0979746 8.39930505,31.2506488 C9.63677046,33.403323 8.90202537,36.1489494 6.74935118,37.3993051 C4.58378672,38.6367705 1.83816035,37.9020254 0.600694949,35.7493512" id="Path"></path>
                    <path d="M33.6006949,15.7493512 C32.3632295,13.596677 33.0979746,10.8510506 35.2506488,9.60069495 C37.403323,8.36322954 40.1489494,9.09797463 41.3993051,11.2506488 C42.6367705,13.403323 41.9020254,16.1489494 39.7493512,17.3993051 C37.596677,18.6367705 34.8381604,17.9020254 33.6006949,15.7493512" id="Path"></path>
                    <path d="M21.5,47 C19.0114613,47 17,44.9885387 17,42.5 C17,40.0114613 19.0114613,38 21.5,38 C23.9885387,38 26,40.0114613 26,42.5 C26,44.9756447 23.9885387,47 21.5,47" id="Path"></path>
                    <path d="M21.5,9 C19.0114613,9 17,6.98853868 17,4.5 C17,2.01146132 19.0114613,0 21.5,0 C23.9885387,0 26,2.01146132 26,4.5 C26,6.98853868 23.9885387,9 21.5,9" id="Path"></path>
                </g>
            </g>
        </g>
    </g>
</svg>