<?xml version="1.0" encoding="UTF-8"?>
<svg width="1024px" height="1024px" viewBox="0 0 1024 1024" version="1.1" xmlns="http://www.w3.org/2000/svg" xmlns:xlink="http://www.w3.org/1999/xlink">
    <!-- Generator: Sketch 39.1 (31720) - http://www.bohemiancoding.com/sketch -->
    <title>PiterJS</title>
    <desc>Created with Sketch.</desc>
    <defs></defs>
    <g id="Page-1" stroke="none" stroke-width="1" fill="none" fill-rule="evenodd">
        <g id="Group">
            <g id="js">
                <g id="logo">
                    <rect id="background" fill="#F7DF1E" x="0" y="0" width="1024" height="1024"></rect>
                    <path d="M269.246984,855.728762 L347.611429,808.303746 C362.729651,835.108571 376.48254,857.786921 409.469968,857.786921 C441.090032,857.786921 461.025524,845.418057 461.025524,797.305905 L461.025524,470.113524 L557.255111,470.113524 L557.255111,798.667175 C557.255111,898.336508 498.832254,943.703365 413.594413,943.703365 C336.613587,943.703365 291.929397,903.834413 269.246984,855.720635" id="j" fill="#000000"></path>
                    <path d="M609.52381,845.417651 L687.878095,800.050794 C708.504381,833.735111 735.311238,858.479746 782.738286,858.479746 C822.611302,858.479746 848.036571,838.54466 848.036571,811.048635 C848.036571,778.055111 821.918476,766.368508 777.925079,747.127873 L753.87327,736.810667 C684.444444,707.258921 638.388825,670.140952 638.388825,591.780571 C638.388825,519.606857 693.378032,464.613587 779.302603,464.613587 C840.478476,464.613587 884.469841,485.924571 916.085841,541.60254 L841.161143,589.716317 C824.663365,560.16254 806.79619,548.477968 779.302603,548.477968 C751.120254,548.477968 733.246984,566.349206 733.246984,589.716317 C733.246984,618.587429 751.120254,630.274032 792.358603,648.147302 L816.414476,658.456381 C898.212571,693.514159 944.26819,729.254603 944.26819,809.673143 C944.26819,896.286476 876.218921,943.711492 784.800508,943.711492 C695.442286,943.711492 637.702095,901.097651 609.52381,845.417651" id="s" fill="#000000"></path>
                </g>
            </g>
            <g id="coat" transform="translate(68.000000, 52.000000)" fill="#000000">
                <g id="svg2">
                    <g id="layer1" transform="translate(0.351097, 0.744149)">
                        <path d="M240.024744,0 C243.267447,0 245.874795,2.00115131 245.874784,4.47972924 C245.874784,6.26346436 244.524565,7.78371083 242.551684,8.5080129 L242.551684,18.5092689 C247.116206,25.6110163 294.216972,98.8965196 295.513591,100.741818 L320.921459,100.741818 L316.663737,95.081385 L316.663737,92.581071 L314.794494,92.581071 L309.948306,86.1566531 L347.160103,86.1566531 L347.160103,74.5927008 C344.709527,73.8790223 342.971612,72.0412026 342.971612,69.8698855 C342.971612,67.0815131 345.858589,64.7998377 349.410119,64.7998044 C352.961649,64.7998044 355.814009,67.0815131 355.814009,69.8698855 C355.814009,72.0412026 354.076095,73.8790112 351.625519,74.5927008 L351.625519,112.375223 L381.394956,137.482543 L398.910462,137.482543 L398.910462,142.552624 L392.1258,142.552624 L392.1258,191.829646 C395.033989,190.830176 397.925551,189.827995 400.848937,188.84316 L400.848937,194.32996 C397.987427,196.365071 395.070554,198.295647 392.1258,200.372385 L392.1258,227.111854 L402.545103,227.111854 L405.487431,218.499662 C403.883903,217.718642 402.822028,216.361015 402.822028,214.783917 C402.822028,212.346711 405.359835,210.373641 408.498991,210.373641 C411.638135,210.373641 414.210569,212.346711 414.210569,214.783917 C414.210569,216.828096 412.383096,218.518609 409.952847,219.020561 L390.187325,288.716813 C377.791819,299.533438 351.912845,327.289379 376.029534,338.618913 L370.179494,359.28123 L245.044009,359.28123 L245.044009,386.749958 C253.001638,389.11071 258.751797,395.903018 258.751797,403.939616 C258.751797,413.931282 249.845856,422.066893 238.882428,422.066893 C227.919001,422.066893 219.047675,413.931271 219.047675,403.939616 C219.047675,395.903029 224.797834,389.110699 232.755462,386.749958 L232.755462,359.28123 L118.177744,359.28123 C117.985624,354.598365 106.82681,337.489171 100.316081,330.42344 C87.0710576,316.049323 71.0735877,298.017815 69.1274031,292.224198 C66.8459953,285.432634 69.6466375,275.555438 69.6466375,275.555438 L33.507925,237.842369 L37.6271844,233.744632 L37.6271844,217.180052 L0,217.180052 L4.63849375,211.033446 L5.88465625,211.033446 L5.88465625,209.401297 L9.51929687,204.574302 L5.88465625,199.504221 L5.88465625,197.281719 L4.2923375,197.281719 L0.276925,191.656013 L37.6271844,191.656013 L37.6271844,182.071476 C35.5964712,181.351041 34.1310062,179.485051 34.1310062,177.279208 C34.1310062,174.452108 36.5279361,172.139684 39.4618125,172.139673 C41.5876217,172.139673 43.3888859,173.352426 44.2387687,175.091433 L63.6235187,175.091433 C64.1892765,164.902598 68.3685289,154.686148 71.7928062,144.497313 L62.9312062,144.497313 L62.9312062,140.017584 L79.1313187,140.017584 L78.8890094,139.739771 L112.189241,110.013816 L112.189241,104.804828 L69.508175,104.804828 L74.2159,98.6234964 L75.8082187,98.6234964 L75.8082187,96.5399015 L79.9967094,91.0531013 L75.8082187,85.5315746 L75.8082187,83.4827061 L74.2505156,83.4827061 L69.23125,76.8846553 L112.327703,76.8846553 L112.327703,66.8486728 C110.055312,66.3263294 108.416137,64.8649903 108.416137,63.1329284 C108.416137,60.9642005 110.962219,59.2088356 114.127716,59.2088245 C117.293212,59.2088245 119.873909,60.9642227 119.873909,63.1329284 C119.873909,64.7594771 118.435738,66.1477959 116.377731,66.744493 L116.377731,100.741818 L180.5551,100.741818 L218.77075,49.3812014 L219.463062,48.2699507 L193.016725,48.2699507 L197.551372,42.3664316 L200.562931,42.3664316 L200.562931,38.4423277 L204.474497,33.3722465 L200.562931,28.3021654 L200.562931,24.9684134 L198.001375,24.9684134 L193.016725,18.5092689 L237.636266,18.5092689 L238.051653,17.8147372 L238.051653,8.68164581 C235.786019,8.05855645 234.140087,6.42518467 234.140087,4.47972924 C234.140087,2.00117353 236.782041,1.11125066e-05 240.024744,0 L240.024744,0 Z M228.843897,24.1697019 L222.163081,30.8372059 L215.516881,24.1697019 L213.163019,26.5311096 L219.809219,33.1986136 L213.163019,39.8661176 L215.516881,42.2275252 L222.163081,35.5600213 L228.843897,42.2275252 L231.197759,39.8661176 L224.551559,33.1986136 L231.197759,26.5311096 L228.843897,24.1697019 L228.843897,24.1697019 Z M242.828609,25.5240387 L242.551684,25.7671248 L242.551684,55.8403459 C245.196374,56.6435801 247.0171,58.2196669 247.0171,60.0422625 C247.0171,61.8648691 245.196374,63.4409448 242.551684,64.244179 L242.551684,65.9457816 L273.774978,100.741818 L289.836628,100.741818 L242.828609,25.5240387 L242.828609,25.5240387 Z M235.524712,48.2699507 L224.378481,48.2699507 L185.643597,100.741818 L201.116781,100.741818 L235.524712,66.2583209 L235.524712,64.4872651 C232.425379,63.7857548 230.228522,62.0533039 230.228522,60.0422625 C230.228522,58.0312321 232.425379,56.2987812 235.524712,55.5972598 L235.524712,48.2699507 L235.524712,48.2699507 Z M242.551684,71.4673083 L242.551684,100.741818 L267.613397,100.741818 L242.551684,71.4673083 L242.551684,71.4673083 Z M235.524713,71.6409413 L207.486056,100.741818 L235.524713,100.741818 L235.524713,71.6409413 L235.524713,71.6409413 Z M104.781497,81.8505567 L98.1006812,88.5180607 L91.4544812,81.8505567 L89.1006187,84.2119644 L95.7468187,90.8794684 L89.1006187,97.5469724 L91.4544812,99.90838 L98.1006812,93.240876 L104.781497,99.90838 L107.135359,97.5469724 L100.489159,90.8794684 L107.135359,84.2119644 L104.781497,81.8505567 L104.781497,81.8505567 Z M342.556225,91.6781798 L335.875409,98.3456838 L329.229209,91.6781798 L326.875347,94.0395875 L333.521547,100.707091 L326.875347,107.374595 L329.229209,109.736003 L335.875409,103.068499 L342.556225,109.736003 L344.910087,107.374595 L338.263887,100.707091 L344.910087,94.0395875 L342.556225,91.6781798 L342.556225,91.6781798 Z M318.394519,104.665922 L293.713578,104.665922 L293.748194,132.863908 C293.761065,145.094143 300.483874,156.52509 304.409806,161.166073 C306.95714,152.458268 310.370761,144.952248 311.506009,142.552624 L302.679025,142.552624 L302.679025,137.482543 L317.944516,137.482543 L346.225481,113.62538 L311.644472,113.62538 L315.036803,109.145651 L316.663737,109.145651 L316.663737,106.957876 L318.394519,104.665922 L318.394519,104.665922 Z M290.009706,104.665922 L275.713453,104.665922 C263.755012,122.85365 259.422742,165.81169 281.701956,189.398785 L302.886719,189.398785 C301.900855,185.246775 301.27229,181.03489 301.432863,177.348661 C301.585005,173.855855 302.198294,170.191473 303.025181,166.58342 C300.607537,163.252724 290.267612,151.103209 290.252016,133.002814 L290.2174,105.082641 L290.009706,104.665922 L290.009706,104.665922 Z M267.613397,104.665922 L242.551684,104.665922 L242.551684,112.201591 C260.74507,111.580012 266.069019,107.266937 267.613397,104.665922 L267.613397,104.665922 Z M235.524713,104.665922 L219.947681,104.665922 C220.835314,106.770997 224.077076,111.142769 235.524713,112.062684 L235.524713,104.665922 L235.524713,104.665922 Z M216.0015,104.665922 L195.543666,104.665922 C196.464031,106.918894 198.929018,110.280627 205.616812,110.256902 C212.736665,110.230943 215.014539,107.082125 216.0015,104.665922 L216.0015,104.665922 Z M190.628247,104.665922 L182.7705,104.665922 L156.670319,140.017584 L158.331869,140.017584 L158.331869,144.497313 L153.866453,144.497313 C158.697986,160.854256 164.129648,175.582861 169.893487,189.398785 L191.147481,189.398785 C185.566778,181.664792 174.875479,164.204788 175.397372,144.497313 C175.969244,123.130374 187.283491,108.539075 190.628247,104.665922 L190.628247,104.665922 Z M177.612772,104.665922 L119.181597,104.665922 L119.181597,109.66655 L150.6472,140.017584 L151.339512,140.017584 L177.612772,104.665922 L177.612772,104.665922 Z M119.181597,115.882608 L119.181597,140.017584 L145.1087,140.017584 L119.181597,115.882608 L119.181597,115.882608 Z M112.189241,116.611867 L85.5005937,140.017584 L112.189241,140.017584 L112.189241,116.611867 L112.189241,116.611867 Z M351.625519,118.244016 L351.625519,137.482543 L374.437216,137.482543 L351.625519,118.244016 L351.625519,118.244016 Z M347.160103,118.695462 L324.902256,137.482543 L347.160103,137.482543 L347.160103,118.695462 L347.160103,118.695462 Z M388.975778,142.552624 L388.560391,142.552624 C387.116803,144.03431 372.125257,159.839495 372.464125,177.487567 C372.628962,185.971455 377.848854,192.665662 380.806491,195.823203 C383.510752,194.83499 386.235938,193.894894 388.975778,192.940897 L388.975778,142.552624 L388.975778,142.552624 Z M379.594944,142.552624 L353.633225,142.552624 C354.608112,144.189774 358.090089,149.033127 365.610231,149.289581 C372.636251,149.529156 379.594944,142.552624 379.594944,142.552624 L379.594944,142.552624 Z M345.256244,142.552624 L320.436841,142.552624 C320.889425,143.751964 322.744822,147.306355 328.709975,147.726885 C335.478886,148.204078 343.966704,143.318865 345.256244,142.552624 L345.256244,142.552624 Z M147.151022,144.497313 L146.389478,144.497313 L133.616312,144.497313 C134.367776,151.511927 143.382372,147.455762 146.527941,145.018212 L147.151022,144.497313 L147.151022,144.497313 Z M127.93935,144.497313 L119.181597,144.497313 L119.181597,151.789895 C122.569231,150.555096 125.697432,148.26453 127.93935,144.497313 L127.93935,144.497313 Z M112.189241,144.497313 L97.9276031,144.497313 C97.8447582,148.772861 104.678813,152.812146 112.189241,152.935873 L112.189241,144.497313 L112.189241,144.497313 Z M94.5698875,144.497313 L77.6774625,144.497313 C81.2639957,155.65937 93.1363908,147.639963 94.5698875,144.497313 L94.5698875,144.497313 Z M150.924125,149.463214 C145.374349,159.58463 140.199285,173.608547 144.970237,189.398785 L165.981922,189.398785 C160.770149,177.020608 155.730834,163.863034 150.924125,149.463214 L150.924125,149.463214 Z M245.044009,178.459911 L245.044009,189.398785 L268.444172,189.398785 L267.994169,189.120972 C263.273262,183.818951 253.961072,179.626902 245.044009,178.459911 L245.044009,178.459911 Z M233.032387,179.08499 C228.298366,180.514036 224.69566,183.580632 223.513091,188.84316 L223.547706,189.398785 L233.032387,189.398785 L233.032387,179.08499 L233.032387,179.08499 Z M63.6235187,179.466982 L44.2387687,179.466982 C43.7765366,180.398399 43.0140513,181.172685 42.0926,181.689484 L42.0926,232.980647 L49.1541875,240.16905 L49.5003437,239.925964 L74.1120531,215.27009 C68.3107956,214.554511 62.9551326,212.276491 58.3273281,207.387155 L56.215775,207.387155 L56.215775,203.150512 L112.189241,203.150512 L112.189241,194.955038 C106.977147,195.373991 101.803877,197.684181 99.0353031,202.872699 L95.4006625,203.081059 C94.6261476,199.673031 83.9936122,192.877689 76.9159187,202.872699 L74.4235937,202.872699 C66.9937735,195.068619 64.0604399,187.271073 63.6235187,179.466982 L63.6235187,179.466982 Z M206.0322,181.446398 C201.507966,181.311069 197.248493,183.596445 195.370588,189.398785 L219.359216,189.398785 C216.435209,184.745979 211.060017,181.596783 206.0322,181.446398 L206.0322,181.446398 Z M30.3579031,195.232851 L23.6770875,201.900355 L17.0308875,195.232851 L14.677025,197.594259 L21.323225,204.261763 L14.677025,210.929267 L17.0308875,213.290674 L23.6770875,206.62317 L30.3579031,213.290674 L32.7117656,210.929267 L26.0655656,204.261763 L32.7117656,197.594259 L30.3579031,195.232851 L30.3579031,195.232851 Z M119.181597,195.510664 L119.181597,203.150512 L132.889384,203.150512 L147.981797,203.150512 C149.794836,202.675152 136.166426,192.314107 132.889384,203.150512 L128.112428,203.011606 C128.34705,199.631926 124.364736,196.73015 119.181597,195.510664 L119.181597,195.510664 Z M305.448275,198.149884 C302.463888,200.484066 299.461533,202.76822 295.513591,203.706137 L312.92525,240.794128 C316.682679,235.061797 321.121743,229.985449 326.113803,225.444979 L311.056006,210.89454 L311.056006,210.825087 C310.235721,209.75892 307.704305,204.605484 305.448275,198.149884 L305.448275,198.149884 Z M344.633162,198.39297 C343.97829,198.38797 343.374627,198.399604 342.694687,198.39297 C324.174542,198.208625 315.61356,208.196123 314.171412,210.061102 L328.640744,223.222477 C333.535271,219.089036 338.909211,215.411296 344.633162,212.075244 L344.633162,198.39297 L344.633162,198.39297 Z M354.152459,198.60133 L354.152459,206.970436 C358.111567,205.014013 362.19579,203.196718 366.371775,201.448909 C363.242212,199.541159 359.234343,198.862518 354.152459,198.60133 L354.152459,198.60133 Z M148.881803,198.670783 C149.687035,200.14679 150.578323,201.655002 151.581822,203.150512 L158.331869,203.150512 L158.4011,207.526062 L153.866453,207.526062 C153.748882,207.664801 153.638644,207.80513 153.520297,207.942781 L163.524212,228.639824 L177.993544,216.416067 C175.949483,212.003535 173.921506,207.545008 171.901194,203.011606 C164.690144,203.319822 157.568774,203.333935 151.616437,199.226408 C150.743094,198.966075 149.823791,198.8078 148.881803,198.670783 L148.881803,198.670783 Z M388.975778,202.66434 C381.372492,208.321584 373.870494,215.305516 367.514091,227.111854 L388.975778,227.111854 L388.975778,202.66434 L388.975778,202.66434 Z M175.951222,203.393598 C177.563734,206.992406 179.194435,210.537551 180.832025,214.054659 L189.797472,206.449537 C185.055696,206.98216 180.418498,206.152667 175.951222,203.393598 L175.951222,203.393598 Z M289.248162,204.018677 C284.544846,207.261917 280.025807,208.31935 275.609606,208.394226 L302.644409,270.797896 L305.309812,270.797896 C305.696145,260.736544 312.28027,260.866093 316.767584,260.866093 L318.46375,260.866093 C318.232673,260.383544 315.489996,254.511329 314.344491,252.080268 C311.299667,253.356839 308.215675,254.811689 305.067503,256.490544 C306.645942,252.161478 308.53693,248.130227 310.70985,244.370966 C302.98259,227.948637 293.883843,208.639046 291.775103,204.157583 C290.973095,204.161406 290.129205,204.129379 289.248162,204.018677 L289.248162,204.018677 Z M222.405391,205.685553 C218.319551,208.160241 214.295708,209.336622 210.289922,209.644383 C214.166384,226.358282 221.937952,248.570294 233.032387,255.830739 L233.032387,212.735049 C228.348866,211.711498 224.40706,209.532447 222.405391,205.685553 L222.405391,205.685553 Z M265.190303,207.248249 L267.578781,212.735049 L273.913441,212.735049 L271.974966,208.25532 C269.70582,208.04766 267.439831,207.672391 265.190303,207.248249 L265.190303,207.248249 Z M194.40135,207.248249 L182.355113,217.318958 C190.29741,234.225214 198.429712,250.460098 206.101431,267.603051 L233.032388,267.603051 L233.032388,260.484101 C223.115172,252.044563 213.825313,241.820946 207.036053,209.713836 C202.8028,209.572741 198.595224,208.574827 194.40135,207.248249 L194.40135,207.248249 Z M261.936434,207.942781 C260.919012,208.794699 259.291435,209.642061 257.332556,210.408368 L258.301794,212.735049 L264.013372,212.735049 L261.936434,207.942781 L261.936434,207.942781 Z M151.270281,210.408368 C148.136941,213.640918 144.564952,216.275738 140.054819,217.562044 L151.131819,239.127252 L160.962656,230.792872 L151.270281,210.408368 L151.270281,210.408368 Z M254.21715,211.450165 C252.833633,211.853694 251.339866,212.227996 249.78635,212.52669 L249.855581,212.735049 L254.736384,212.735049 L254.21715,211.450165 L254.21715,211.450165 Z M95.6775875,212.700322 C90.0093869,214.275454 84.4601976,215.391205 79.20055,215.513176 C81.1661747,223.858024 84.0450427,231.063106 87.4044531,237.529829 L106.027659,216.659153 C102.213726,216.056399 98.6917832,214.907677 95.6775875,212.700322 L95.6775875,212.700322 Z M246.428634,213.047588 C245.972328,213.104873 245.505067,213.17586 245.044009,213.221221 L245.044009,267.603051 L267.198009,267.603051 L246.428634,213.047588 L246.428634,213.047588 Z M274.917294,215.027004 L268.582634,215.027004 L271.628809,222.041773 L277.963469,222.041773 L274.917294,215.027004 L274.917294,215.027004 Z M265.017225,215.027004 L259.236416,215.027004 L262.109512,222.041773 L268.0634,222.041773 L265.017225,215.027004 L265.017225,215.027004 Z M255.671006,215.027004 L250.720972,215.027004 L253.386375,222.041773 L258.544103,222.041773 L255.671006,215.027004 L255.671006,215.027004 Z M125.481641,217.180052 C124.183782,217.175029 122.845337,217.195676 121.535459,217.214778 L123.681628,222.250133 L129.947056,222.250133 L128.043197,217.80513 C127.210107,217.639487 126.365508,217.417459 125.481641,217.180052 L125.481641,217.180052 Z M77.2274594,217.180052 C73.7527817,220.408468 54.8794457,239.443614 51.6465125,242.70409 L67.9158563,259.303397 L85.3275156,239.821784 C79.9185279,229.432557 76.4939626,220.022097 77.2274594,217.180052 L77.2274594,217.180052 Z M119.008519,217.249505 C118.776644,217.252816 118.547882,217.281331 118.316206,217.284231 L118.316206,266.804339 L133.650928,253.851324 L118.904672,217.492591 L119.008519,217.249505 L119.008519,217.249505 Z M137.216337,218.187123 C135.377655,218.445211 133.36739,218.472747 131.193219,218.256576 L132.924,222.250133 L139.189428,222.250133 L137.216337,218.187123 L137.216337,218.187123 Z M109.800762,218.291302 L89.2736969,241.002488 C95.0627365,251.183733 101.989605,259.520758 108.277675,267.603051 L109.800762,267.603051 L109.800762,218.291302 L109.800762,218.291302 Z M179.516631,219.715092 L165.0473,231.83467 L182.355113,267.603051 L201.912941,267.603051 C194.5402,251.174587 186.974809,235.70759 179.516631,219.715092 L179.516631,219.715092 Z M139.777894,223.50029 L133.443234,223.50029 L136.939413,231.522131 L143.654844,231.522131 L139.777894,223.50029 L139.777894,223.50029 Z M130.466291,223.50029 L124.200863,223.50029 L127.593194,231.522131 L133.858622,231.522131 L130.466291,223.50029 L130.466291,223.50029 Z M278.932706,224.333728 L272.598047,224.333728 L275.644222,231.348498 L281.978881,231.348498 L278.932706,224.333728 L278.932706,224.333728 Z M269.032637,224.333728 L263.044134,224.333728 L265.917231,231.348498 L272.078812,231.348498 L269.032637,224.333728 L269.032637,224.333728 Z M259.478725,224.333728 L254.251766,224.333728 L256.917169,231.348498 L262.351822,231.348498 L259.478725,224.333728 L259.478725,224.333728 Z M391.779644,230.028887 L385.098828,236.696391 L378.452628,230.028887 L376.098766,232.390295 L382.744966,239.057799 L376.098766,245.725303 L378.452628,248.086711 L385.098828,241.419207 L391.779644,248.086711 L394.133506,245.725303 L387.487306,239.057799 L394.133506,232.390295 L391.779644,230.028887 L391.779644,230.028887 Z M144.277925,232.772288 L137.493263,232.772288 L140.989441,240.759402 L148.120259,240.759402 L144.277925,232.772288 L144.277925,232.772288 Z M134.412472,232.772288 L128.147044,232.772288 L131.539375,240.759402 L137.804803,240.759402 L134.412472,232.772288 L134.412472,232.772288 Z M282.948119,233.640452 L276.613459,233.640452 L279.659634,240.655222 L285.994294,240.655222 L282.948119,233.640452 L282.948119,233.640452 Z M273.04805,233.640452 L266.851853,233.640452 L269.72495,240.655222 L276.094225,240.655222 L273.04805,233.640452 L273.04805,233.640452 Z M263.286444,233.640452 L257.817175,233.640452 L260.482578,240.655222 L266.159541,240.655222 L263.286444,233.640452 L263.286444,233.640452 Z M162.451128,233.987718 L152.689522,242.183192 L165.739612,267.603051 L178.443547,267.603051 L162.451128,233.987718 L162.451128,233.987718 Z M147.635641,242.044285 L141.543291,242.044285 L143.204841,245.794756 L147.635641,242.044285 L147.635641,242.044285 Z M138.358653,242.044285 L132.093225,242.044285 L135.485556,250.031399 L138.185575,250.031399 L140.816363,247.808898 L138.358653,242.044285 L138.358653,242.044285 Z M286.998147,242.947176 L280.663488,242.947176 L283.709663,249.961946 L290.044322,249.961946 L286.998147,242.947176 L286.998147,242.947176 Z M277.098078,242.947176 L270.659572,242.947176 L273.532669,249.961946 L280.144253,249.961946 L277.098078,242.947176 L277.098078,242.947176 Z M267.094163,242.947176 L261.347969,242.947176 L264.013372,249.961946 L269.967259,249.961946 L267.094163,242.947176 L267.094163,242.947176 Z M87.1967594,243.294442 L70.4081813,261.838438 L87.7159938,279.514269 L97.6160625,279.514269 L97.6160625,267.603051 L104.573803,267.603051 C98.3832666,261.516886 92.1553341,252.263213 87.1967594,243.294442 L87.1967594,243.294442 Z M149.920272,244.475146 L144.589466,248.954875 L145.039469,250.031399 L152.620291,250.031399 L149.920272,244.475146 L149.920272,244.475146 Z M344.633163,244.683506 C335.965388,245.397751 327.001403,247.190109 317.598359,250.760658 L322.3407,260.866093 L344.633163,260.866093 L344.633163,244.683506 L344.633163,244.683506 Z M153.208756,251.281556 L145.593319,251.281556 L149.089497,259.303397 L157.085706,259.303397 L153.208756,251.281556 L153.208756,251.281556 Z M142.270219,251.281556 L141.820216,251.281556 L137.527878,254.858395 L139.466353,259.407577 L139.466353,259.303397 L145.66255,259.303397 L142.270219,251.281556 L142.270219,251.281556 Z M136.697103,251.281556 L136.004791,251.281556 L136.177869,251.733002 L136.697103,251.281556 L136.697103,251.281556 Z M394.306584,251.733002 L354.152459,251.733002 L354.152459,260.866093 L391.537334,260.866093 L394.306584,251.733002 L394.306584,251.733002 Z M291.013559,252.253901 L284.6789,252.253901 L287.725075,259.268671 L294.059734,259.268671 L291.013559,252.253901 L291.013559,252.253901 Z M281.113491,252.253901 L274.467291,252.253901 L277.340388,259.268671 L284.159666,259.268671 L281.113491,252.253901 L281.113491,252.253901 Z M270.901881,252.253901 L264.913378,252.253901 L267.578781,259.268671 L273.774978,259.268671 L270.901881,252.253901 L270.901881,252.253901 Z M134.931706,257.046169 L122.331619,267.603051 L139.224044,267.603051 L134.931706,257.046169 L134.931706,257.046169 Z M157.708788,260.553554 L149.643347,260.553554 L152.724138,267.603051 L161.101119,267.603051 L157.708788,260.553554 L157.708788,260.553554 Z M146.2164,260.553554 L139.950972,260.553554 L142.962531,267.603051 L149.193344,267.603051 L146.2164,260.553554 L146.2164,260.553554 Z M295.063587,261.560625 L288.728928,261.560625 L291.359716,267.603051 L297.694375,267.603051 L295.063587,261.560625 L295.063587,261.560625 Z M285.163519,261.560625 L278.275009,261.560625 L280.732719,267.603051 L287.794306,267.603051 L285.163519,261.560625 L285.163519,261.560625 Z M274.7096,261.560625 L268.444172,261.560625 L270.763419,267.603051 L277.167309,267.603051 L274.7096,261.560625 L274.7096,261.560625 Z M333.036928,282.431302 L321.267616,282.431302 L321.267616,294.23834 L333.036928,294.23834 L333.036928,282.431302 L333.036928,282.431302 Z M310.502156,282.431302 L298.767459,282.431302 L298.767459,294.23834 L310.502156,294.23834 L310.502156,282.431302 L310.502156,282.431302 Z M288.002,282.431302 L276.232687,282.431302 L276.232687,294.23834 L288.002,294.23834 L288.002,282.431302 L288.002,282.431302 Z M265.467228,282.431302 L253.732531,282.431302 L253.732531,294.23834 L265.467228,294.23834 L265.467228,282.431302 L265.467228,282.431302 Z M226.178494,282.431302 L214.409181,282.431302 L214.409181,294.23834 L226.178494,294.23834 L226.178494,282.431302 L226.178494,282.431302 Z M203.643722,282.431302 L191.909025,282.431302 L191.909025,294.23834 L203.643722,294.23834 L203.643722,282.431302 L203.643722,282.431302 Z M181.143566,282.431302 L169.374253,282.431302 L169.374253,294.23834 L181.143566,294.23834 L181.143566,282.431302 L181.143566,282.431302 Z M158.608794,282.431302 L146.874097,282.431302 L146.874097,294.23834 L158.608794,294.23834 L158.608794,282.431302 L158.608794,282.431302 Z M86.7121406,292.258925 C84.473202,299.735375 87.4444411,301.212816 93.5660344,302.225454 C94.1109674,312.211453 98.6893352,311.823359 105.889197,311.497452 C105.049992,310.795853 86.7121406,292.258925 86.7121406,292.258925 L86.7121406,292.258925 Z M319.190678,305.593933 L307.421366,305.593933 L307.421366,317.400971 L319.190678,317.400971 L319.190678,305.593933 L319.190678,305.593933 Z M296.655906,305.593933 L284.921209,305.593933 L284.921209,317.400971 L296.655906,317.400971 L296.655906,305.593933 L296.655906,305.593933 Z M274.15575,305.593933 L262.386438,305.593933 L262.386438,317.400971 L274.15575,317.400971 L274.15575,305.593933 L274.15575,305.593933 Z M217.074584,305.593933 L205.305272,305.593933 L205.305272,317.400971 L217.074584,317.400971 L217.074584,305.593933 L217.074584,305.593933 Z M194.539813,305.593933 L182.805116,305.593933 L182.805116,317.400971 L194.539813,317.400971 L194.539813,305.593933 L194.539813,305.593933 Z M172.039656,305.593933 L160.270344,305.593933 L160.270344,317.400971 L172.039656,317.400971 L172.039656,305.593933 L172.039656,305.593933 Z M149.504884,305.593933 L137.770188,305.593933 L137.770188,317.400971 L149.504884,317.400971 L149.504884,305.593933 L149.504884,305.593933 Z" id="path3480"></path>
                    </g>
                </g>
            </g>
        </g>
    </g>
</svg>