<svg xmlns="http://www.w3.org/2000/svg" width="57" height="16" viewBox="0 0 57 16"><path fill="#FFF" d="M35.356.409a1.385 1.385 0 0 0-.99-.409H1.389C.622 0 0 .624 0 1.394v13.212C0 15.376.622 16 1.388 16h32.979c.37.002.727-.145.99-.409l6.252-6.588c.53-.542.53-1.447 0-1.99L35.356.41zM24.954 4.408a.84.84 0 0 1 .61-.23.874.874 0 0 1 .725.41.73.73 0 0 1 .118.409.726.726 0 0 1-.118.409.873.873 0 0 1-.317.294.864.864 0 0 1-1.157-.294.75.75 0 0 1-.114-.41.774.774 0 0 1 .253-.588zm-16.16 6.796a2.698 2.698 0 0 1-.973 1.063 2.618 2.618 0 0 1-2.74 0 2.699 2.699 0 0 1-.969-1.063 3.381 3.381 0 0 1-.354-1.57 3.172 3.172 0 0 1 .362-1.51c.227-.438.566-.81.981-1.075a2.531 2.531 0 0 1 2.708 0 2.8 2.8 0 0 1 .981 1.076c.244.465.369.983.363 1.509a3.385 3.385 0 0 1-.359 1.57zM14.65 8.63c-.338-.501-.905-.85-1.53-.808a1.29 1.29 0 0 0-.758.237 1.634 1.634 0 0 0-.554.642 2.38 2.38 0 0 0-.2 1.002c0 .32.068.637.2.928.112.255.294.472.525.626.23.148.497.225.77.22.209-.01.36-.026.453-.048.075-.018.177-.062.304-.131a2.04 2.04 0 0 0 .692-.577l.79.916a2.9 2.9 0 0 1-1.03.765c-.386.166-.802.25-1.221.245a2.84 2.84 0 0 1-1.466-.38 2.698 2.698 0 0 1-1.018-1.067 3.2 3.2 0 0 1-.366-1.534 3.242 3.242 0 0 1 .366-1.537 2.76 2.76 0 0 1 1.018-1.088 2.806 2.806 0 0 1 1.49-.409c.453-.003.9.095 1.311.286.39.178.723.461.96.818l-.736.894zm6.787 3.841h-4.479v-1.059h1.556V5.316h-1.47V4.24h2.85v7.172h1.543v1.06zm6.132 0h-3.954v-1.096h1.364v-3.5h-1.307V6.78h2.655v4.596h1.221l.02 1.096zm6.677-6.648a2.85 2.85 0 0 0-.627-.462 1.33 1.33 0 0 0-.582-.123 1.04 1.04 0 0 0-.843.335 1.49 1.49 0 0 0-.285.99v.233h1.738v1.083h-1.73v4.592h-1.323V7.863H29.37V6.779h1.222v-.237a2.573 2.573 0 0 1 .313-1.308 2.1 2.1 0 0 1 .847-.818c.364-.19.77-.287 1.18-.282a2.56 2.56 0 0 1 1.882.793l-.57.896zm-26.631 2.8c.113.323.166.664.158 1.006a2.94 2.94 0 0 1-.158 1.002c-.089.265-.248.5-.46.679-.2.16-.45.246-.705.241a1.06 1.06 0 0 1-.692-.237 1.509 1.509 0 0 1-.464-.662 3.021 3.021 0 0 1-.159-1.023 2.8 2.8 0 0 1 .163-1.001c.089-.255.247-.48.456-.65a1.08 1.08 0 0 1 .7-.209c.253-.006.501.073.705.225.207.163.365.381.456.63zM57 15.334a.665.665 0 0 1-.664.667h-11.09a.665.665 0 0 1-.664-.666v-.65c0-.369.297-.667.664-.667H56.34c.365.002.66.3.66.666v.65z"/></svg>