<?xml version="1.0" encoding="UTF-8"?>
<svg width="398px" height="103px" viewBox="0 0 398 103" version="1.1" xmlns="http://www.w3.org/2000/svg" xmlns:xlink="http://www.w3.org/1999/xlink">
    <!-- Generator: Sketch 52.5 (67469) - http://www.bohemiancoding.com/sketch -->
    <title>logo-timepad-without-background-1</title>
    <desc>Created with Sketch.</desc>
    <g id="Page-1" stroke="none" stroke-width="1" fill="none" fill-rule="evenodd">
        <g id="logo-timepad-without-background-1" fill="#434347">
            <g id="Type_Italic" transform="translate(111.000000, 34.000000)">
                <polygon id="Shape" points="25.7 8.5 17.9 53.3 9.1 53.3 16.9 8.5 0.8 8.5 2.3 0.9 43.1 0.9 41.6 8.5"></polygon>
                <path d="M53.3,16.4 L46.8,53.3 L38.1,53.3 L44.6,16.4 L53.3,16.4 Z M56.1,0.9 L54.8,8.5 L46,8.5 L47.3,0.9 L56.1,0.9 Z" id="Shape" fill-rule="nonzero"></path>
                <path d="M69.8,16.4 L68.9,22.5 C70.6,20.3 72.4,18.7 74.4,17.7 C76.4,16.7 78.6,16.2 81.1,16.2 C85.1,16.2 87.9,16.8 89.5,18.1 C90.8,19.1 91.5,20.6 91.5,22.6 C92.9,20.2 94.6,18.5 96.6,17.6 C98.6,16.7 101,16.2 103.8,16.2 C107.7,16.2 110.5,16.8 112.2,18.1 C113.9,19.4 114.8,21.5 114.8,24.5 C114.8,25.7 114.7,27.1 114.4,28.8 L110.1,53.4 L101.4,53.4 L105.5,30.5 C105.6,29.8 105.7,29.2 105.8,28.5 C105.9,27.8 105.9,27.3 105.9,27 C105.9,25.6 105.5,24.5 104.7,23.9 C103.9,23.3 102.4,23 100.2,23 C98,23 96.1,23.5 94.6,24.5 C92.5,25.9 91.2,28.3 90.6,31.6 L86.8,53.4 L78,53.4 L82.1,30.3 C82.2,29.5 82.4,28.8 82.4,28.2 C82.5,27.6 82.5,27.1 82.5,26.6 C82.5,25.3 82.1,24.4 81.3,23.8 C80.5,23.3 79.1,23 76.9,23 C73.9,23 71.6,23.7 70.2,25.1 C68.7,26.5 67.7,28.7 67.2,31.8 L63.4,53.4 L54.7,53.4 L61.2,16.5 L69.8,16.5 L69.8,16.4 Z" id="Shape"></path>
                <path d="M143.7,41.7 L152.4,41.7 C151.8,46.5 149.7,49.9 146.1,51.8 C143.3,53.2 138.9,54 133.1,54 C128,54 124.4,53.1 122.2,51.4 C120,49.7 118.9,46.7 118.9,42.5 C118.9,39.9 119.1,38.2 119.6,35.1 C120.8,28.1 122.9,23.2 125.9,20.4 C128.9,17.6 133.5,16.2 139.8,16.2 C144.9,16.2 148.6,17.1 150.9,19 C153.2,20.9 154.3,23.8 154.3,27.9 C154.3,28.8 154.2,29.9 154.1,31.2 C154,32.5 153.7,34.3 153.3,36.7 L128.3,36.7 C127.9,38.9 127.7,40.8 127.7,42.2 C127.7,44.3 128.2,45.7 129.2,46.5 C130.2,47.3 131.9,47.7 134.3,47.7 C137.4,47.7 139.6,47.3 140.9,46.7 C142.6,45.7 143.5,44.1 143.7,41.7 Z M145.6,31.2 C145.7,30.7 145.8,30.2 145.8,29.7 C145.9,29.2 145.9,28.6 145.9,28 C145.9,26 145.4,24.6 144.3,23.8 C143.2,23 141.4,22.6 138.9,22.6 C135.9,22.6 133.7,23.2 132.3,24.5 C130.9,25.8 129.9,28 129.4,31.3 L145.6,31.3 L145.6,31.2 Z" id="Shape" fill-rule="nonzero"></path>
                <path d="M168.8,36.2 L165.8,53.4 L156.7,53.4 L165.9,1 L188.2,1 C194.2,1 198.4,1.7 200.9,3.2 C203.9,4.9 205.4,8.1 205.4,12.7 C205.4,14.2 205.2,16.1 204.8,18.3 C203.6,25.3 201.3,30.1 198.1,32.7 C195,35.1 190,36.3 182.9,36.3 L168.8,36.3 L168.8,36.2 Z M173.6,8.7 L170.4,28.4 L184.4,28.4 C187.9,28.4 190.5,27.8 192.1,26.7 C193.7,25.6 194.7,23.3 195.3,19.9 C195.4,19.3 195.5,17.9 195.6,17.3 C195.6,16.7 195.7,15.3 195.7,14.7 C195.7,12.5 195.1,10.9 193.8,10 C192.6,9.1 190.5,8.7 187.6,8.7 L173.6,8.7 Z" id="Shape" fill-rule="nonzero"></path>
                <path d="M217.5,27.3 L208.8,27.3 C209.5,23 211.5,20 214.8,18.2 C217.4,16.8 221.2,16.1 226.1,16.1 C231.2,16.1 234.8,16.6 236.9,17.6 C239.7,19 241.2,21.5 241.2,25.3 C241.2,25.9 241.2,26.5 241.1,27.2 C241.1,27.9 241,28.6 240.8,29.3 L236.5,53.4 L227.8,53.4 L228.3,51.7 C228.3,51.7 226.1,54 216,54 C212,54 209,53.4 207.2,52.1 C205.3,50.8 204.4,48.8 204.4,45.8 C204.4,44.8 204.5,43.6 204.8,42.1 C205.6,37.9 207.1,35 209.3,33.5 C211.7,31.8 215.6,30.9 221,30.9 C221,30.9 230.5,31 231.2,34.3 L232.1,29.3 C232.3,28.3 232.4,27.4 232.4,26.4 C232.4,24.6 231.9,23.4 230.9,22.8 C229.9,22.2 228.1,21.8 225.5,21.8 C222.8,21.8 220.9,22.2 219.8,22.9 C218.7,23.7 217.9,25.2 217.5,27.3 M222.2,36.9 C219.1,36.9 216.9,37.5 215.6,38.6 C214.3,39.7 213.6,41.6 213.6,44.2 C213.6,45.6 214.1,46.6 215.1,47.1 C216.1,47.7 217.8,47.9 220.2,47.9 C223.6,47.9 226.1,47.4 227.5,46.5 C229.2,45.4 230,43.5 230,40.7 C230,39.2 229.4,38.2 228.3,37.6 C227.2,37.2 225.1,36.9 222.2,36.9" id="Shape" fill-rule="nonzero"></path>
                <path d="M257.6,54 C253.7,54.1 249.9,53 248,50.9 C246.3,49.1 245.5,46.5 245.5,42.9 C245.5,40.7 245.8,37.8 246.4,34.3 C247.5,28 249.2,23.5 251.6,20.9 C254.3,17.8 258.7,16.2 264.5,16.2 C267.1,16.2 269.2,16.6 270.9,17.4 C272.6,18.2 273.9,18.4 274.6,20.5 L278,1 L286.7,1 L277.5,53.4 L268.8,53.4 L269.2,51.7 C265.7,53.9 261.5,53.8 257.6,54 Z M265.5,22.9 C262.3,22.9 260,23.6 258.7,25.1 C257.2,26.7 256,30 255.1,35 C254.6,37.8 254.4,39.9 254.4,41.2 C254.4,43.6 254.9,45.2 255.9,46 C256.9,46.8 258.7,47.2 261.2,47.2 C264.5,47.2 266.8,46.4 268.3,44.8 C269.8,43.2 270.9,39.9 271.8,34.9 C272.2,32.4 272.4,30.5 272.4,29 C272.4,26.6 271.9,25 270.8,24.2 C269.8,23.4 268,22.9 265.5,22.9 Z" id="Shape" fill-rule="nonzero"></path>
            </g>
            <g id="Graphic">
                <path d="M64.4,87.5 C64.4,87.5 83.9,95.9 75,99.3 C61.2,104 43.3,103.3 27.4,99.3 C16.3,95.6 42.3,87.3 42.3,87.3 C42.3,87.3 16.4,88.2 4.5,82.3 C-1.8,79.2 0.1,64.4 3.6,51.6 C3.4,52.8 3.3,54 3.1,55.1 C2.5,59.9 2.1,64.6 2.1,68.3 C2.4,72.1 1.2,77.9 14.6,79 C29.3,81 56.5,82 71.5,70.7 C81.1,63.2 85.3,49.1 86.3,38.8 C87.3,28.5 86.8,15.6 86.8,15.6 C91.5,15.9 95,17.9 95.5,20.4 C108.2,83.2 64.4,87.5 64.4,87.5" id="Shape"></path>
                <path d="M59.3,58.1 C58.1,64.6 55.3,69.9 53.2,73.3 C63.7,72 71.4,66 76.7,54.9 C72.4,57.5 66.7,58.8 59.3,58.1" id="Shape"></path>
                <g id="Group" transform="translate(11.000000, 0.000000)">
                    <path d="M60.6,26 C62.8,26.3 64.8,24.8 65.1,22.8 C65.4,20.7 63.8,18.8 61.6,18.5 C61,18.4 60.5,18.5 60,18.6 C59.3,17.2 59,15.2 59.3,13 C59.4,12 59.7,10.9 60.1,9.9 C61.6,6.1 64.3,4.6 65.8,4.9 C66.2,5 66.5,5.1 66.9,5.3 C68.4,6.1 69.6,8.9 69.3,12.2 L69.1,13 C71.1,12.8 72.6,12.7 73.7,12.6 C73.9,8.3 72.7,3.6 69.2,1.4 C68.3,0.8 67.3,0.5 66.3,0.4 C61.7,-0.1 57.8,3.3 55.8,8.2 C55.3,9.6 54.9,11 54.7,12.4 C54.2,16.1 54.9,19.9 57,22.5 C57.2,24.3 58.7,25.8 60.6,26 Z" id="Shape"></path>
                    <path d="M38.9,29.4 C40.7,29.6 42.4,28.3 42.7,26.4 C42.9,24.5 41.7,22.7 39.8,22.5 C39.3,22.4 38.9,22.5 38.4,22.6 C37.9,21.3 37.6,19.4 37.9,17.4 C38,16.4 38.3,15.5 38.6,14.5 C39.9,11 42.2,9.5 43.4,9.8 C43.7,9.8 44,9.9 44.3,10.2 C45.5,10.9 46.4,13.3 46.2,16.2 C47.5,16 48.8,15.8 50,15.6 C50.3,11.6 49.2,8.7 46.3,6.7 C45.7,6 44.9,5.7 44,5.5 C40.2,5.1 36.8,8.3 35.1,12.9 C34.6,14.2 34.3,15.5 34.1,16.8 C33.7,20.2 34.2,23.7 35.9,26.1 C36.1,27.8 37.3,29.2 38.9,29.4 Z" id="Shape"></path>
                    <path d="M19.4,33.6 C20.9,33.8 22.2,32.5 22.5,30.7 C22.7,28.9 21.7,27.3 20.3,27.1 C19.9,27.1 19.6,27.1 19.2,27.2 C18.8,26 18.6,24.3 18.9,22.4 C19,21.5 19.2,20.6 19.5,19.7 C20.6,16.4 22.4,15 23.5,15.2 C23.8,15.2 24,15.3 24.2,15.5 C25.1,16.1 25.7,18.1 25.7,20.5 C26.7,20.2 27.7,20 28.7,19.7 C28.5,16.3 28.1,13.8 25.9,12.1 C25.3,11.6 24.6,11.4 24,11.3 C20.9,11 18.2,14 16.8,18.3 C16.4,19.5 16.1,20.7 16,21.9 C15.6,25.1 16,28.3 17.3,30.5 C17.1,32.2 18.1,33.4 19.4,33.6 Z" id="Shape"></path>
                    <path d="M3.4,38.2 C4.5,38.4 5.6,37.2 5.8,35.7 C6,34.2 5.3,32.8 4.1,32.6 C3.8,32.6 3.5,32.6 3.3,32.7 C3,31.7 2.9,30.2 3.1,28.6 C3.2,27.8 3.4,27 3.6,26.3 C4.5,23.5 5.9,22.2 6.7,22.4 C6.9,22.4 7.1,22.5 7.2,22.7 C7.8,23.1 8.2,24.5 8.3,26.3 C9.1,26 9.8,25.7 10.6,25.4 C10.5,23.1 9.9,21 8.6,19.8 C8.2,19.4 7.7,19.2 7.1,19.1 C4.8,18.9 2.6,21.5 1.5,25.2 C1.2,26.2 1,27.3 0.8,28.3 C0.5,31.1 0.7,33.8 1.7,35.7 C1.7,37 2.4,38.1 3.4,38.2 Z" id="Shape"></path>
                </g>
            </g>
        </g>
    </g>
</svg>